<svg fill="#f5f5f6" height="200px" width="200px" version="1.1" id="Layer_1" xmlns="http://www.w3.org/2000/svg" xmlns:xlink="http://www.w3.org/1999/xlink" viewBox="0 0 512 512" xml:space="preserve"><g id="SVGRepo_bgCarrier" stroke-width="0"></g><g id="SVGRepo_tracerCarrier" stroke-linecap="round" stroke-linejoin="round"></g><g id="SVGRepo_iconCarrier"> <g> <g> <g> <path d="M277.248,174.598v60.075c0,11.776-9.536,21.333-21.333,21.333H195.84c8.832,24.768,32.299,42.667,60.075,42.667 c35.285,0,64-28.715,64-64C319.915,206.897,302.016,183.43,277.248,174.598z"></path> <path d="M234.581,174.592c-0.512,0.192-1.045,0.299-1.557,0.491c-2.859,1.109-5.547,2.496-8.171,3.989 c-1.259,0.704-2.603,1.28-3.819,2.048c-3.648,2.389-7.061,5.099-10.155,8.149c-0.149,0.149-0.277,0.299-0.427,0.448 c-3.029,3.051-5.696,6.443-8.064,10.048c-0.832,1.259-1.429,2.667-2.155,3.989c-1.451,2.56-2.816,5.184-3.883,7.957 c-0.213,0.533-0.32,1.088-0.512,1.621h38.741V174.592z"></path> <path d="M384,0H128c-23.531,0-42.667,19.136-42.667,42.667v426.667C85.333,492.864,104.469,512,128,512h256 c23.509,0,42.667-19.136,42.667-42.667V42.667C426.667,19.136,407.509,0,384,0z M256,448c-11.776,0-21.333-9.557-21.333-21.333 s9.557-21.333,21.333-21.333s21.333,9.557,21.333,21.333S267.776,448,256,448z M255.915,341.333 c-58.816,0-106.667-47.851-106.667-106.667S197.099,128,255.915,128c58.816,0,106.667,47.851,106.667,106.667 S314.731,341.333,255.915,341.333z"></path> </g> </g> </g> </g></svg>